<svg width="76" height="49" viewBox="0 0 76 49" fill="none" xmlns="http://www.w3.org/2000/svg">
<path d="M31.2526 44.0374C32.8248 44.0374 33.9723 43.1389 34.1774 41.7864V41.7571H33.0934L33.0836 41.7766C32.8834 42.5725 32.1852 43.0706 31.2526 43.0706C29.983 43.0706 29.192 42.0208 29.192 40.3508V40.3411C29.192 38.6663 29.983 37.6165 31.2477 37.6165C32.1754 37.6165 32.8834 38.178 33.0885 39.0422V39.0569H34.1725L34.1774 39.0325C33.9918 37.6311 32.8004 36.6497 31.2477 36.6497C29.2897 36.6497 28.0739 38.0657 28.0739 40.3411V40.3508C28.0739 42.6213 29.2946 44.0374 31.2526 44.0374ZM35.3046 43.8665H36.3641V40.7561C36.3641 39.9016 36.8475 39.3694 37.6239 39.3694C38.4003 39.3694 38.7665 39.804 38.7665 40.6829V43.8665H39.8212V40.4338C39.8212 39.1692 39.1669 38.4612 37.9804 38.4612C37.2089 38.4612 36.7011 38.803 36.4423 39.3694H36.3641V36.4836H35.3046V43.8665ZM42.5157 43.9543C43.2189 43.9543 43.7755 43.6516 44.088 43.1145H44.171V43.8665H45.2208V40.2385C45.2208 39.1252 44.4689 38.4612 43.1359 38.4612C41.9298 38.4612 41.0948 39.0422 40.9679 39.9114L40.963 39.9456H41.9835L41.9884 39.926C42.1154 39.55 42.5011 39.3352 43.087 39.3352C43.8048 39.3352 44.171 39.6575 44.171 40.2385V40.7073L42.7355 40.7903C41.4708 40.8684 40.7579 41.4202 40.7579 42.3674V42.3772C40.7579 43.3391 41.505 43.9543 42.5157 43.9543ZM41.8126 42.3333V42.3235C41.8126 41.845 42.1446 41.5813 42.8771 41.5374L44.171 41.4543V41.9084C44.171 42.592 43.59 43.1096 42.7989 43.1096C42.2277 43.1096 41.8126 42.8215 41.8126 42.3333ZM48.4769 43.9006C48.682 43.9006 48.8773 43.8762 49.0482 43.8469V43.0022C48.9017 43.0168 48.8089 43.0217 48.6478 43.0217C48.1254 43.0217 47.9105 42.7874 47.9105 42.2161V39.3987H49.0482V38.5637H47.9105V37.2258H46.8314V38.5637H46.0013V39.3987H46.8314V42.47C46.8314 43.4905 47.3099 43.9006 48.4769 43.9006Z" fill="#2E2F34"/>
<path d="M48.3579 30.92C48.2694 30.9197 48.1812 30.9095 48.0949 30.8894L42.7365 29.6381C41.4489 30.273 40.0499 30.6483 38.6184 30.7428V30.764H38.1024C38.0259 30.764 37.9494 30.764 37.8723 30.764H37.8549L37.7455 30.7609C35.8944 30.7278 33.9389 30.2747 32.4641 29.5333C32.2776 29.4484 30.8189 28.7669 29.2961 27.2434C28.1017 26.0489 27.289 24.4187 27.235 24.3101C26.3436 22.5324 25.9224 20.5545 26.0118 18.5663C26.1012 16.5781 26.6981 14.6464 27.7454 12.9564C28.7926 11.2679 30.2499 9.87409 31.9806 8.9057C33.7114 7.9373 35.6589 7.42609 37.6404 7.42001L37.6696 7.42001H38.3536C44.2847 7.74829 49.0102 12.4753 49.336 18.408V18.4298L49.3509 19.165C49.3532 20.8906 48.9677 22.5945 48.223 24.1497L49.4703 29.5095C49.5093 29.678 49.5099 29.853 49.4722 30.0217C49.4345 30.1904 49.3593 30.3484 49.2524 30.4839C49.1454 30.6195 49.0094 30.7291 48.8544 30.8046C48.6995 30.8801 48.5296 30.9195 48.3573 30.92H48.3579ZM42.5829 28.3219L48.2236 29.6381L46.9104 23.9943L47.013 23.7915C47.7341 22.3597 48.1092 20.7775 48.108 19.1731L48.0937 18.4666C47.7965 13.1774 43.5901 8.96904 38.3007 8.66822H37.6422C34.8874 8.66987 32.2456 9.76798 30.2962 11.7218C28.3468 13.6756 27.2488 16.3256 27.243 19.0908C27.2404 20.7083 27.6181 22.3037 28.3454 23.7472L28.3492 23.7547C28.3566 23.7715 29.1133 25.3006 30.1741 26.3616C31.5942 27.782 32.964 28.3924 32.9777 28.398L33.0094 28.413C34.3052 29.0677 36.1077 29.4833 37.7654 29.5145H37.9948H38.019C39.5312 29.4971 40.9594 29.1401 42.3814 28.4199L42.5829 28.3219Z" fill="#2E2F34"/>
<path d="M42.9972 19.472C42.9459 19.6499 42.8724 19.8213 42.7783 19.9823C42.5986 20.3055 42.4419 20.5839 41.9258 21.0979C41.5528 21.4681 40.9695 21.9558 39.7683 21.923C38.7299 21.895 37.6138 21.2219 37.1929 20.9357C36.6712 20.5815 36.0482 20.0909 35.2486 20.1081C34.9135 20.1159 34.4969 20.1803 34.2674 20.2673C33.8123 20.4408 33.5499 20.5982 33.1327 20.9518C32.9978 21.0752 32.8522 21.1873 32.6974 21.2869C32.5731 21.3638 32.4487 21.3912 32.3667 21.3316C32.2423 21.2427 32.3014 21.0716 32.3387 20.9202C32.3791 20.7568 32.6608 20.1707 33.0674 19.7916C33.3156 19.5619 33.5996 19.3708 33.9093 19.2251C34.3694 19.0033 34.6728 18.9181 35.2865 18.9181C36.0376 18.9181 36.775 19.1774 37.191 19.4344C37.9104 19.878 38.8524 20.7073 39.8062 20.7366C40.4361 20.755 40.9453 20.6769 41.8009 20.0038C42.0968 19.7713 42.3437 19.5215 42.5681 19.3682C42.7379 19.2526 42.8417 19.2573 42.9026 19.2818C42.9403 19.2965 42.9709 19.3241 42.9884 19.3593C43.0059 19.3945 43.009 19.4347 42.9972 19.472Z" fill="#2E2F34"/>
<path d="M42.9972 15.6884C42.9458 15.8665 42.8723 16.038 42.7783 16.1993C42.5986 16.5219 42.4419 16.8003 41.9258 17.3143C41.5528 17.6845 40.9695 18.1722 39.7683 18.1394C38.7299 18.112 37.6138 17.4383 37.1929 17.1527C36.6712 16.7949 36.0482 16.3072 35.2486 16.3245C34.9135 16.3323 34.4969 16.3973 34.2674 16.4837C33.8123 16.6572 33.5499 16.8152 33.1327 17.1682C32.9977 17.2916 32.8521 17.4039 32.6974 17.5039C32.5731 17.5802 32.4487 17.6076 32.3667 17.548C32.2423 17.4591 32.3014 17.288 32.3387 17.1366C32.3791 16.9738 32.6608 16.3877 33.0674 16.0085C33.3142 15.7777 33.5973 15.5854 33.9062 15.4386C34.3663 15.2168 34.6697 15.1315 35.2834 15.1315C36.0345 15.1315 36.7719 15.3915 37.1879 15.6478C37.9073 16.0914 38.8493 16.9213 39.8031 16.95C40.433 16.969 40.9422 16.8903 41.7978 16.2172C42.0937 15.9847 42.3406 15.7349 42.565 15.5816C42.7348 15.466 42.8386 15.4707 42.8995 15.4952C42.9385 15.5093 42.9703 15.5372 42.9884 15.5732C43.0066 15.6091 43.0097 15.6503 42.9972 15.6884Z" fill="#2E2F34"/>
</svg>
