<svg width="30" height="30" viewBox="0 0 30 30" fill="none" xmlns="http://www.w3.org/2000/svg">
<circle cx="15" cy="15" r="15" transform="rotate(-180 15 15)" fill="#F4F3F3"/>
<path d="M18.9711 10.0369C18.9829 10.9996 18.9845 11.964 18.9845 12.9268C18.9845 13.8895 18.9845 14.8539 18.9711 15.8182C18.9711 15.6885 18.9711 16.298 18.956 16.695H23.1468C23.5005 16.695 23.7737 16.5856 23.9296 16.3027L24 16.1652V10.0838C23.9432 9.9827 23.877 9.88647 23.8022 9.79617C23.7326 9.73019 23.6488 9.67868 23.5564 9.64501C23.4639 9.61134 23.3649 9.59627 23.2658 9.6008C21.8359 9.6008 20.4044 9.6008 18.9745 9.6008C18.9711 9.81024 18.9711 9.99154 18.9711 10.0369Z" fill="#C7C7CC"/>
<path d="M7.23347 16.7723C7.27612 16.964 7.36964 17.1413 7.50457 17.2862C7.6395 17.4311 7.81105 17.5384 8.00184 17.5973C8.22382 17.6624 8.45446 17.6946 8.68614 17.693C9.91854 17.7029 11.151 17.693 12.385 17.693C12.5448 17.693 12.5532 17.7012 12.5246 17.8398C12.4489 18.2424 12.3834 18.6483 12.2942 19.0493C12.1555 19.5822 12.1795 20.1434 12.3632 20.663C12.5448 21.1382 12.7499 21.6051 12.9483 22.077C13.0004 22.2078 13.0803 22.3262 13.1826 22.4243C13.285 22.5225 13.4074 22.5981 13.5418 22.6463C13.8064 22.755 14.0915 22.8072 14.3783 22.7992C14.665 22.7912 14.9467 22.7233 15.2046 22.6001C15.3664 22.5389 15.5049 22.4301 15.6013 22.2886C15.6976 22.1471 15.747 21.9798 15.7426 21.8097C15.7258 21.29 15.7225 20.7686 15.6989 20.2488C15.6881 20.08 15.7329 19.9123 15.8267 19.7703C16.2739 19.0806 16.706 18.3827 17.1718 17.7045C17.4284 17.36 17.704 17.0295 17.9973 16.7145L18.0292 16.6799C18.0292 16.2113 18.0292 15.7421 18.0292 15.2724C18.0292 13.497 18.0354 11.7211 18.0477 9.94458C17.6663 9.72892 17.2318 9.62045 16.7918 9.63108C14.6885 9.64263 12.5885 9.63108 10.4801 9.63108C10.1161 9.62016 9.75237 9.66186 9.4007 9.75483C8.69959 9.95943 8.26076 10.4478 8.20528 11.1062C8.17487 11.3562 8.20601 11.6096 8.29607 11.8454C8.30031 11.8677 8.29917 11.8906 8.29275 11.9124C8.28632 11.9342 8.27479 11.9542 8.25908 11.9708C7.97749 12.2762 7.82954 12.678 7.84716 13.0895C7.86539 13.236 7.90268 13.3796 7.95812 13.5168C7.9735 13.5474 7.97885 13.5819 7.97343 13.6156C7.96801 13.6493 7.95209 13.6805 7.92786 13.7049C7.66344 13.9819 7.51827 14.3484 7.52266 14.7279C7.54737 14.91 7.58672 15.0899 7.64035 15.2658C7.65044 15.3087 7.65717 15.3714 7.64035 15.3978C7.42564 15.615 7.28065 15.8892 7.22339 16.1865C7.22339 16.1964 7.20825 16.2047 7.19985 16.2146V16.632C7.20153 16.6799 7.22002 16.7261 7.23347 16.7723Z" fill="#C7C7CC"/>
</svg>
