<svg width="75" height="49" viewBox="0 0 75 49" fill="none" xmlns="http://www.w3.org/2000/svg">
<path d="M15.919 43.8665H20.3916V42.9241H17.0127V40.7317H20.211V39.8235H17.0127V37.7629H20.3916V36.8206H15.919V43.8665ZM21.2014 43.8665H22.3538L23.5159 41.9524H23.594L24.7561 43.8665H25.9622L24.1897 41.1809L25.9427 38.5637H24.7708L23.638 40.4583H23.555L22.4124 38.5637H21.1868L22.9641 41.2249L21.2014 43.8665ZM28.7837 43.969C30.1411 43.969 30.8736 43.1877 31.0493 42.4895L31.0591 42.4456L30.0386 42.4504L30.0191 42.4895C29.8921 42.7629 29.4868 43.0999 28.8081 43.0999C27.9341 43.0999 27.3775 42.509 27.3579 41.4934H31.1177V41.1223C31.1177 39.5305 30.2095 38.4612 28.73 38.4612C27.2505 38.4612 26.2935 39.5696 26.2935 41.2249V41.2297C26.2935 42.9094 27.231 43.969 28.7837 43.969ZM28.7349 39.3303C29.4527 39.3303 29.9849 39.7893 30.0679 40.7366H27.3726C27.4654 39.8235 28.0122 39.3303 28.7349 39.3303ZM32.1375 43.8665H33.197V40.6975C33.197 39.9309 33.7488 39.4329 34.5593 39.4329C34.7595 39.4329 34.9402 39.4573 35.1306 39.4963V38.5198C35.0232 38.4954 34.8377 38.4709 34.6668 38.4709C33.9587 38.4709 33.4656 38.803 33.2752 39.3645H33.197V38.5637H32.1375V43.8665ZM37.9961 43.969C39.3096 43.969 40.0664 43.261 40.2568 42.2307L40.2666 42.1868H39.251L39.2412 42.2112C39.0703 42.7825 38.6602 43.0852 37.9961 43.0852C37.1221 43.0852 36.5801 42.3723 36.5801 41.2004V41.1907C36.5801 40.0481 37.1123 39.345 37.9961 39.345C38.6992 39.345 39.1289 39.7356 39.2461 40.2581L39.251 40.2727L40.2666 40.2678V40.2434C40.1201 39.2131 39.3242 38.4612 37.9912 38.4612C36.4434 38.4612 35.501 39.511 35.501 41.1907V41.2004C35.501 42.9143 36.4482 43.969 37.9961 43.969ZM41.7795 37.6165C42.1409 37.6165 42.4436 37.3186 42.4436 36.9573C42.4436 36.5911 42.1409 36.2932 41.7795 36.2932C41.4133 36.2932 41.1155 36.5911 41.1155 36.9573C41.1155 37.3186 41.4133 37.6165 41.7795 37.6165ZM41.2473 43.8665H42.302V38.5637H41.2473V43.8665ZM45.5337 43.969C46.7934 43.969 47.7309 43.3 47.7309 42.3186V42.3088C47.7309 41.5422 47.2427 41.1077 46.2221 40.8684L45.3823 40.678C44.7866 40.5364 44.5425 40.3313 44.5425 39.9993V39.9895C44.5425 39.5647 44.9624 39.2766 45.5434 39.2766C46.1391 39.2766 46.5151 39.5549 46.6177 39.926V39.9358H47.6284V39.9309C47.5356 39.0667 46.7593 38.4612 45.5483 38.4612C44.3471 38.4612 43.4878 39.1252 43.4878 40.0481V40.053C43.4878 40.8293 43.9516 41.2834 44.9526 41.5129L45.7973 41.7083C46.4126 41.8499 46.6616 42.0745 46.6616 42.4065V42.4163C46.6616 42.8508 46.2075 43.1487 45.5532 43.1487C44.9233 43.1487 44.5376 42.8801 44.4057 42.4797L44.4009 42.4749H43.3413V42.4797C43.4438 43.3684 44.2544 43.969 45.5337 43.969ZM50.9821 43.969C52.3396 43.969 53.072 43.1877 53.2478 42.4895L53.2575 42.4456L52.237 42.4504L52.2175 42.4895C52.0905 42.7629 51.6853 43.0999 51.0066 43.0999C50.1325 43.0999 49.5759 42.509 49.5564 41.4934H53.3161V41.1223C53.3161 39.5305 52.4079 38.4612 50.9284 38.4612C49.4489 38.4612 48.4919 39.5696 48.4919 41.2249V41.2297C48.4919 42.9094 49.4294 43.969 50.9821 43.969ZM50.9333 39.3303C51.6511 39.3303 52.1833 39.7893 52.2663 40.7366H49.571C49.6638 39.8235 50.2107 39.3303 50.9333 39.3303ZM56.2646 43.969C57.5244 43.969 58.4619 43.3 58.4619 42.3186V42.3088C58.4619 41.5422 57.9736 41.1077 56.9531 40.8684L56.1132 40.678C55.5175 40.5364 55.2734 40.3313 55.2734 39.9993V39.9895C55.2734 39.5647 55.6933 39.2766 56.2744 39.2766C56.8701 39.2766 57.2461 39.5549 57.3486 39.926V39.9358H58.3593V39.9309C58.2666 39.0667 57.4902 38.4612 56.2793 38.4612C55.0781 38.4612 54.2187 39.1252 54.2187 40.0481V40.053C54.2187 40.8293 54.6826 41.2834 55.6836 41.5129L56.5283 41.7083C57.1435 41.8499 57.3925 42.0745 57.3925 42.4065V42.4163C57.3925 42.8508 56.9384 43.1487 56.2841 43.1487C55.6543 43.1487 55.2685 42.8801 55.1367 42.4797L55.1318 42.4749H54.0722V42.4797C54.1748 43.3684 54.9853 43.969 56.2646 43.969Z" fill="#2E2F34"/>
<path d="M35.0383 18.5723H26.1266C25.8278 18.5723 25.5413 18.4537 25.33 18.2427C25.1187 18.0316 25 17.7454 25 17.447V8.54535C25 8.24689 25.1187 7.96066 25.33 7.74962C25.5413 7.53858 25.8278 7.42001 26.1266 7.42001H35.0383C35.3371 7.42001 35.6237 7.53858 35.835 7.74962C36.0463 7.96066 36.1649 8.24689 36.1649 8.54535V17.447C36.1649 17.7454 36.0463 18.0316 35.835 18.2427C35.6237 18.4537 35.3371 18.5723 35.0383 18.5723ZM26.68 17.2695H34.485C34.5846 17.2695 34.6802 17.23 34.7507 17.1596C34.8211 17.0892 34.8607 16.9937 34.8607 16.8942V9.0981C34.8607 8.99856 34.8211 8.90309 34.7507 8.83271C34.6802 8.76232 34.5846 8.72278 34.485 8.72278H26.68C26.5803 8.72278 26.4848 8.76232 26.4143 8.83271C26.3438 8.90309 26.3042 8.99856 26.3042 9.0981V16.8942C26.3042 16.9937 26.3438 17.0892 26.4143 17.1596C26.4848 17.23 26.5803 17.2695 26.68 17.2695Z" fill="#2E2F34"/>
<path d="M35.0383 30.92H26.1266C25.8278 30.92 25.5413 30.8015 25.33 30.5904C25.1187 30.3794 25 30.0931 25 29.7947V20.8931C24.9997 20.7451 25.0286 20.5985 25.085 20.4617C25.1415 20.3249 25.2245 20.2005 25.3291 20.0957C25.4338 19.991 25.5581 19.9079 25.6949 19.8512C25.8318 19.7944 25.9785 19.7653 26.1266 19.7653H35.0383C35.3371 19.7653 35.6237 19.8838 35.835 20.0949C36.0463 20.3059 36.165 20.5921 36.165 20.8906V29.7947C36.165 30.0931 36.0463 30.3794 35.835 30.5904C35.6237 30.8015 35.3371 30.92 35.0383 30.92ZM26.68 29.6173H34.485C34.5846 29.6173 34.6802 29.5777 34.7507 29.5073C34.8211 29.4369 34.8607 29.3415 34.8607 29.2419V21.4458C34.8607 21.3463 34.8211 21.2508 34.7507 21.1804C34.6802 21.11 34.5846 21.0705 34.485 21.0705H26.68C26.5803 21.0705 26.4848 21.11 26.4143 21.1804C26.3438 21.2508 26.3042 21.3463 26.3042 21.4458V29.2419C26.3042 29.3415 26.3438 29.4369 26.4143 29.5073C26.4848 29.5777 26.5803 29.6173 26.68 29.6173Z" fill="#2E2F34"/>
<path d="M47.3734 18.5723H38.4617C38.1629 18.5723 37.8763 18.4537 37.6651 18.2427C37.4538 18.0316 37.3351 17.7454 37.3351 17.447V8.54535C37.3351 8.24689 37.4538 7.96066 37.6651 7.74962C37.8763 7.53858 38.1629 7.42001 38.4617 7.42001H47.3734C47.6722 7.42001 47.9588 7.53858 48.1701 7.74962C48.3813 7.96066 48.5 8.24689 48.5 8.54535V17.447C48.5 17.7454 48.3813 18.0316 48.1701 18.2427C47.9588 18.4537 47.6722 18.5723 47.3734 18.5723ZM39.0157 17.2695H46.82C46.9197 17.2695 47.0153 17.23 47.0857 17.1596C47.1562 17.0892 47.1958 16.9937 47.1958 16.8942V9.0981C47.1958 8.99856 47.1562 8.90309 47.0857 8.83271C47.0153 8.76232 46.9197 8.72278 46.82 8.72278H39.0157C38.9663 8.7227 38.9174 8.73234 38.8717 8.75117C38.8261 8.76999 38.7846 8.79763 38.7496 8.83249C38.7146 8.86735 38.6869 8.90875 38.668 8.95433C38.6491 8.9999 38.6393 9.04876 38.6393 9.0981V16.8942C38.6393 16.9435 38.6491 16.9924 38.668 17.038C38.6869 17.0836 38.7146 17.125 38.7496 17.1598C38.7846 17.1947 38.8261 17.2223 38.8717 17.2411C38.9174 17.26 38.9663 17.2696 39.0157 17.2695Z" fill="#2E2F34"/>
<path d="M47.3743 30.92H38.4626C38.1638 30.92 37.8772 30.8015 37.6659 30.5904C37.4546 30.3794 37.3359 30.0931 37.3359 29.7947V20.8931C37.3356 20.7451 37.3645 20.5985 37.421 20.4617C37.4775 20.3249 37.5604 20.2005 37.665 20.0957C37.7697 19.991 37.894 19.9079 38.0308 19.8512C38.1677 19.7944 38.3144 19.7653 38.4626 19.7653H47.3743C47.6731 19.7653 47.9596 19.8838 48.1709 20.0949C48.3822 20.3059 48.5009 20.5921 48.5009 20.8906V29.7947C48.5009 30.0931 48.3822 30.3794 48.1709 30.5904C47.9596 30.8015 47.6731 30.92 47.3743 30.92ZM39.0166 29.6173H46.8209C46.9206 29.6173 47.0161 29.5777 47.0866 29.5073C47.1571 29.4369 47.1966 29.3415 47.1966 29.2419V21.4458C47.1966 21.3463 47.1571 21.2508 47.0866 21.1804C47.0161 21.11 46.9206 21.0705 46.8209 21.0705H39.0166C38.9672 21.0704 38.9182 21.0801 38.8726 21.0989C38.8269 21.1177 38.7854 21.1454 38.7505 21.1802C38.7155 21.2151 38.6878 21.2565 38.6688 21.3021C38.6499 21.3476 38.6402 21.3965 38.6402 21.4458V29.2419C38.6402 29.2913 38.6499 29.3401 38.6688 29.3857C38.6878 29.4313 38.7155 29.4727 38.7505 29.5075C38.7854 29.5424 38.8269 29.57 38.8726 29.5889C38.9182 29.6077 38.9672 29.6173 39.0166 29.6173Z" fill="#2E2F34"/>
</svg>
