<svg width="30" height="30" viewBox="0 0 30 30" fill="none" xmlns="http://www.w3.org/2000/svg">
<circle cx="15" cy="15" r="15" fill="#F4F3F3"/>
<path d="M12.2288 19.9631C12.2171 19.0004 12.2154 18.036 12.2154 17.0732C12.2154 16.1105 12.2154 15.1461 12.2288 14.1818C12.2288 14.3115 12.2288 13.702 12.2439 13.305H8.05318C7.69949 13.305 7.42625 13.4144 7.27036 13.6973L7.19995 13.8348V19.9162C7.25677 20.0173 7.32296 20.1135 7.39775 20.2038C7.46734 20.2698 7.55111 20.3213 7.64356 20.355C7.736 20.3887 7.83504 20.4037 7.93417 20.3992C9.36404 20.3992 10.7956 20.3992 12.2255 20.3992C12.2288 20.1898 12.2288 20.0085 12.2288 19.9631Z" fill="#52D225"/>
<path d="M23.9664 13.2277C23.9237 13.0359 23.8302 12.8587 23.6953 12.7138C23.5603 12.5689 23.3888 12.4616 23.198 12.4027C22.976 12.3376 22.7454 12.3053 22.5137 12.307C21.2813 12.2971 20.0489 12.307 18.8148 12.307C18.6551 12.307 18.6467 12.2988 18.6752 12.1602C18.7509 11.7576 18.8165 11.3517 18.9056 10.9507C19.0443 10.4178 19.0203 9.85664 18.8366 9.337C18.6551 8.8618 18.4499 8.39485 18.2515 7.92295C18.1994 7.79219 18.1195 7.6738 18.0172 7.57566C17.9149 7.47751 17.7924 7.40185 17.658 7.3537C17.3935 7.24496 17.1083 7.19283 16.8215 7.20079C16.5348 7.20876 16.2531 7.27664 15.9952 7.3999C15.8334 7.46111 15.6949 7.56991 15.5986 7.7114C15.5022 7.85289 15.4529 8.02015 15.4572 8.19025C15.474 8.71 15.4774 9.2314 15.5009 9.75116C15.5117 9.91998 15.4669 10.0877 15.3731 10.2297C14.9259 10.9194 14.4938 11.6173 14.0281 12.2955C13.7715 12.64 13.4959 12.9704 13.2025 13.2855L13.1706 13.3201C13.1706 13.7887 13.1706 14.2579 13.1706 14.7276C13.1706 16.503 13.1644 18.2789 13.1521 20.0554C13.5335 20.2711 13.968 20.3795 14.408 20.3689C16.5114 20.3574 18.6113 20.3689 20.7197 20.3689C21.0838 20.3798 21.4475 20.3381 21.7991 20.2452C22.5002 20.0406 22.9391 19.5522 22.9946 18.8938C23.025 18.6438 22.9938 18.3903 22.9038 18.1546C22.8995 18.1323 22.9007 18.1094 22.9071 18.0876C22.9135 18.0658 22.925 18.0458 22.9408 18.0292C23.2223 17.7238 23.3703 17.322 23.3527 16.9105C23.3344 16.764 23.2971 16.6204 23.2417 16.4832C23.2263 16.4526 23.221 16.4181 23.2264 16.3844C23.2318 16.3507 23.2477 16.3195 23.272 16.2951C23.5364 16.0181 23.6816 15.6516 23.6772 15.2721C23.6525 15.09 23.6131 14.9101 23.5595 14.7342C23.5494 14.6913 23.5427 14.6286 23.5595 14.6022C23.7742 14.385 23.9192 14.1108 23.9764 13.8135C23.9764 13.8036 23.9916 13.7953 24 13.7854V13.368C23.9983 13.3201 23.9798 13.2739 23.9664 13.2277Z" fill="#52D225"/>
</svg>
