<svg width="76" height="49" viewBox="0 0 76 49" fill="none" xmlns="http://www.w3.org/2000/svg">
<path d="M21.0978 43.8665H22.1916V36.8206H21.0978V43.8665ZM23.5971 43.8665H24.6566V40.7561C24.6566 39.9016 25.14 39.3694 25.9164 39.3694C26.6928 39.3694 27.059 39.804 27.059 40.6829V43.8665H28.1137V40.4338C28.1137 39.1692 27.4594 38.4612 26.2729 38.4612C25.5014 38.4612 24.9936 38.803 24.7348 39.3694H24.6566V38.5637H23.5971V43.8665ZM31.2819 43.969C32.5416 43.969 33.4791 43.3 33.4791 42.3186V42.3088C33.4791 41.5422 32.9909 41.1077 31.9704 40.8684L31.1305 40.678C30.5348 40.5364 30.2907 40.3313 30.2907 39.9993V39.9895C30.2907 39.5647 30.7106 39.2766 31.2916 39.2766C31.8873 39.2766 32.2633 39.5549 32.3659 39.926V39.9358H33.3766V39.9309C33.2838 39.0667 32.5075 38.4612 31.2965 38.4612C30.0954 38.4612 29.236 39.1252 29.236 40.0481V40.053C29.236 40.8293 29.6998 41.2834 30.7008 41.5129L31.5455 41.7083C32.1608 41.8499 32.4098 42.0745 32.4098 42.4065V42.4163C32.4098 42.8508 31.9557 43.1487 31.3014 43.1487C30.6715 43.1487 30.2858 42.8801 30.1539 42.4797L30.1491 42.4749H29.0895V42.4797C29.192 43.3684 30.0026 43.969 31.2819 43.969ZM35.0555 37.6165C35.4169 37.6165 35.7196 37.3186 35.7196 36.9573C35.7196 36.5911 35.4169 36.2932 35.0555 36.2932C34.6893 36.2932 34.3915 36.5911 34.3915 36.9573C34.3915 37.3186 34.6893 37.6165 35.0555 37.6165ZM34.5233 43.8665H35.578V38.5637H34.5233V43.8665ZM39.1222 45.7366C40.6261 45.7366 41.5782 44.9651 41.5782 43.759V38.5637H40.5236V39.4329H40.4601C40.1525 38.8372 39.5763 38.4709 38.8341 38.4709C37.4571 38.4709 36.6124 39.5403 36.6124 41.054V41.0637C36.6124 42.5579 37.4523 43.6077 38.8146 43.6077C39.5421 43.6077 40.128 43.2854 40.4503 42.7092H40.5284V43.7542C40.5284 44.4768 40.0109 44.887 39.1368 44.887C38.4191 44.887 37.9894 44.6282 37.9015 44.262L37.8966 44.2522H36.8273L36.8175 44.262C36.9445 45.1458 37.7745 45.7366 39.1222 45.7366ZM39.1075 42.7336C38.2042 42.7336 37.6964 42.0452 37.6964 41.0588V41.0491C37.6964 40.0627 38.2042 39.3694 39.1075 39.3694C40.0011 39.3694 40.548 40.0627 40.548 41.0491V41.0588C40.548 42.05 40.006 42.7336 39.1075 42.7336ZM42.9105 43.8665H43.9701V40.7561C43.9701 39.9016 44.4535 39.3694 45.2298 39.3694C46.0062 39.3694 46.3724 39.804 46.3724 40.6829V43.8665H47.4271V40.4338C47.4271 39.1692 46.7728 38.4612 45.5863 38.4612C44.8148 38.4612 44.307 38.803 44.0482 39.3694H43.9701V36.4836H42.9105V43.8665ZM50.6686 43.9006C50.8736 43.9006 51.0689 43.8762 51.2398 43.8469V43.0022C51.0934 43.0168 51.0006 43.0217 50.8395 43.0217C50.317 43.0217 50.1021 42.7874 50.1021 42.2161V39.3987H51.2398V38.5637H50.1021V37.2258H49.023V38.5637H48.193V39.3987H49.023V42.47C49.023 43.4905 49.5016 43.9006 50.6686 43.9006ZM54.0858 43.969C55.3455 43.969 56.283 43.3 56.283 42.3186V42.3088C56.283 41.5422 55.7948 41.1077 54.7743 40.8684L53.9344 40.678C53.3387 40.5364 53.0946 40.3313 53.0946 39.9993V39.9895C53.0946 39.5647 53.5145 39.2766 54.0955 39.2766C54.6912 39.2766 55.0672 39.5549 55.1698 39.926V39.9358H56.1805V39.9309C56.0877 39.0667 55.3114 38.4612 54.1004 38.4612C52.8993 38.4612 52.0399 39.1252 52.0399 40.0481V40.053C52.0399 40.8293 52.5037 41.2834 53.5047 41.5129L54.3495 41.7083C54.9647 41.8499 55.2137 42.0745 55.2137 42.4065V42.4163C55.2137 42.8508 54.7596 43.1487 54.1053 43.1487C53.4754 43.1487 53.0897 42.8801 52.9579 42.4797L52.953 42.4749H51.8934V42.4797C51.9959 43.3684 52.8065 43.969 54.0858 43.969Z" fill="#2E2F34"/>
<path d="M41 15L41.9 12.9L44 12L41.9 11.1L41 9L40.1 11.1L38 12L40.1 12.9L41 15Z" fill="#2E2F34"/>
<path d="M28.5 20.2L29 18.2L31 17.7L29 17.2L28.5 15.2L28 17.2L26 17.7L28 18.2L28.5 20.2Z" fill="#2E2F34"/>
<path d="M48 15.8C46.9 15.8 46 16.7 46 17.8C46 18.1 46.1 18.3 46.1 18.5L42.3 22.3C42.1 22.2 41.8 22.2 41.6 22.2C41.3 22.2 41.1 22.3 40.8 22.4L37.7 19.3C37.8 19.1 37.8 18.9 37.8 18.7C37.8 17.6 36.9 16.7 35.8 16.7C34.7 16.7 33.8 17.6 33.8 18.7C33.8 19 33.9 19.2 34 19.5L28.8 24.7C28.6 24.7 28.4 24.6 28.3 24.6C27.2 24.6 26.3 25.5 26.3 26.6C26.3 27.7 27.2 28.6 28.3 28.6C29.4 28.6 30.3 27.7 30.3 26.6C30.3 26.3 30.2 26 30.1 25.7L35 20.6C35.2 20.7 35.5 20.7 35.7 20.7C36 20.7 36.3 20.6 36.6 20.5L39.6 23.5C39.5 23.7 39.5 24 39.5 24.2C39.5 25.3 40.4 26.2 41.5 26.2C42.6 26.2 43.5 25.3 43.5 24.2C43.5 23.9 43.4 23.7 43.4 23.5L47.2001 19.7C47.4001 19.8 47.7 19.8 47.9 19.8C49 19.8 49.9 18.9 49.9 17.8C49.9 16.7 49.1 15.8 48 15.8Z" fill="#2E2F34"/>
</svg>
