<svg width="30" height="30" viewBox="0 0 30 30" fill="none" xmlns="http://www.w3.org/2000/svg">
<circle cx="15" cy="15" r="15" fill="#F4F3F3"/>
<path d="M12.2288 19.9631C12.2171 19.0004 12.2154 18.036 12.2154 17.0732C12.2154 16.1105 12.2154 15.1461 12.2288 14.1818C12.2288 14.3115 12.2288 13.702 12.2439 13.305H8.05318C7.69949 13.305 7.42625 13.4144 7.27036 13.6973L7.19995 13.8348V19.9162C7.25677 20.0173 7.32296 20.1135 7.39775 20.2038C7.46734 20.2698 7.55111 20.3213 7.64356 20.355C7.736 20.3887 7.83504 20.4037 7.93417 20.3992C9.36404 20.3992 10.7956 20.3992 12.2255 20.3992C12.2288 20.1898 12.2288 20.0085 12.2288 19.9631Z" fill="#C7C7CC"/>
<path d="M23.9665 13.2277C23.9238 13.0359 23.8303 12.8587 23.6954 12.7138C23.5605 12.5689 23.3889 12.4616 23.1981 12.4027C22.9761 12.3376 22.7455 12.3053 22.5138 12.307C21.2814 12.2971 20.049 12.307 18.8149 12.307C18.6552 12.307 18.6468 12.2988 18.6754 12.1602C18.751 11.7576 18.8166 11.3517 18.9057 10.9507C19.0444 10.4178 19.0205 9.85664 18.8368 9.337C18.6552 8.8618 18.4501 8.39485 18.2517 7.92295C18.1995 7.79219 18.1197 7.6738 18.0173 7.57566C17.915 7.47751 17.7926 7.40185 17.6582 7.3537C17.3936 7.24496 17.1084 7.19283 16.8217 7.20079C16.5349 7.20876 16.2532 7.27664 15.9953 7.3999C15.8336 7.46111 15.695 7.56991 15.5987 7.7114C15.5024 7.85289 15.453 8.02015 15.4573 8.19025C15.4741 8.71 15.4775 9.2314 15.501 9.75116C15.5118 9.91998 15.467 10.0877 15.3732 10.2297C14.926 10.9194 14.4939 11.6173 14.0282 12.2955C13.7716 12.64 13.496 12.9704 13.2027 13.2855L13.1707 13.3201C13.1707 13.7887 13.1707 14.2579 13.1707 14.7276C13.1707 16.503 13.1646 18.2789 13.1522 20.0554C13.5336 20.2711 13.9681 20.3795 14.4082 20.3689C16.5115 20.3574 18.6115 20.3689 20.7198 20.3689C21.0839 20.3798 21.4476 20.3381 21.7993 20.2452C22.5004 20.0406 22.9392 19.5522 22.9947 18.8938C23.0251 18.6438 22.9939 18.3903 22.9039 18.1546C22.8996 18.1323 22.9008 18.1094 22.9072 18.0876C22.9136 18.0658 22.9252 18.0458 22.9409 18.0292C23.2225 17.7238 23.3704 17.322 23.3528 16.9105C23.3346 16.764 23.2973 16.6204 23.2418 16.4832C23.2264 16.4526 23.2211 16.4181 23.2265 16.3844C23.2319 16.3507 23.2479 16.3195 23.2721 16.2951C23.5365 16.0181 23.6817 15.6516 23.6773 15.2721C23.6526 15.09 23.6132 14.9101 23.5596 14.7342C23.5495 14.6913 23.5428 14.6286 23.5596 14.6022C23.7743 14.385 23.9193 14.1108 23.9766 13.8135C23.9766 13.8036 23.9917 13.7953 24.0001 13.7854V13.368C23.9984 13.3201 23.9799 13.2739 23.9665 13.2277Z" fill="#C7C7CC"/>
</svg>
