<svg width="21" height="17" viewBox="0 0 21 17" fill="none" xmlns="http://www.w3.org/2000/svg">
<path d="M2.62506 0.612551L2.62504 0.612544C2.07473 0.398812 1.45821 0.495106 1.01637 0.853047L2.62506 0.612551ZM2.62506 0.612551L19.5684 7.1923L19.7494 6.72621M2.62506 0.612551L19.7494 6.72621M19.7494 6.72621L19.5684 7.1923C20.1624 7.42298 20.5 7.9193 20.5 8.47912C20.5 9.03895 20.1624 9.53527 19.5684 9.76594L2.62506 16.3457C2.07558 16.5591 1.45893 16.4639 1.01634 16.1052L0.701548 16.4937L1.01633 16.1052C0.578946 15.7508 0.40977 15.2224 0.546291 14.7214L0.0638786 14.5899L0.546292 14.7214L2.21128 8.61057L2.24709 8.47912L2.21128 8.34768L0.546292 2.23689L0.546291 2.23689M19.7494 6.72621L0.546291 2.23689M0.546291 2.23689C0.409779 1.73589 0.578962 1.20749 1.01634 0.853072L0.546291 2.23689ZM2.51538 16.2142L2.51546 16.2142L19.4587 9.63444C20.2061 9.3442 20.2695 8.67064 20.2695 8.47912C20.2695 8.28761 20.2061 7.61404 19.4587 7.32381L2.51542 0.744057L2.51534 0.744027C2.06696 0.569988 1.56792 0.642313 1.19219 0.946773C0.812031 1.25482 0.643194 1.73569 0.773821 2.21523L0.77383 2.21526L2.35949 8.0347L2.45992 8.40325H2.84191H8.95585C8.99833 8.40325 9.03016 8.41909 9.04926 8.43697C9.0678 8.45432 9.07113 8.46928 9.07113 8.47908C9.07113 8.48889 9.0678 8.50385 9.04926 8.5212C9.03016 8.53908 8.99833 8.55492 8.95585 8.55492H2.84186H2.45987L2.35945 8.92348L0.773829 14.743L0.773817 14.743C0.643199 15.2226 0.812032 15.7034 1.19218 16.0115C1.56801 16.316 2.06715 16.3882 2.51538 16.2142Z" stroke="#8E8E93"/>
</svg>
