<svg width="70" height="49" viewBox="0 0 70 49" fill="none" xmlns="http://www.w3.org/2000/svg">
<path d="M22.5089 44.0374C24.1496 44.0374 25.1994 43.1975 25.1994 41.8499V41.845C25.1994 40.8 24.5939 40.2043 23.1144 39.887L22.3478 39.7161C21.4347 39.5208 21.0636 39.179 21.0636 38.6565V38.6516C21.0636 37.9875 21.674 37.6018 22.4992 37.6018C23.3537 37.5969 23.9054 38.0168 23.9982 38.593L24.008 38.6565H25.0675L25.0627 38.5881C24.9845 37.4944 24.008 36.6497 22.5138 36.6497C21.0197 36.6497 19.965 37.4895 19.9601 38.7053V38.7102C19.9601 39.7502 20.5754 40.4143 22.006 40.717L22.7775 40.8831C23.7101 41.0833 24.091 41.4348 24.091 41.9768V41.9817C24.091 42.636 23.4513 43.0852 22.5529 43.0852C21.6105 43.0852 20.9318 42.675 20.8732 42.0354L20.8683 41.9817H19.7941L19.799 42.0452C19.8966 43.2317 20.9171 44.0374 22.5089 44.0374ZM28.5043 43.969C29.8617 43.969 30.5941 43.1877 30.7699 42.4895L30.7797 42.4456L29.7592 42.4504L29.7396 42.4895C29.6127 42.7629 29.2074 43.0999 28.5287 43.0999C27.6547 43.0999 27.098 42.509 27.0785 41.4934H30.8383V41.1223C30.8383 39.5305 29.9301 38.4612 28.4506 38.4612C26.9711 38.4612 26.0141 39.5696 26.0141 41.2249V41.2297C26.0141 42.9094 26.9516 43.969 28.5043 43.969ZM28.4555 39.3303C29.1732 39.3303 29.7055 39.7893 29.7885 40.7366H27.0932C27.1859 39.8235 27.7328 39.3303 28.4555 39.3303ZM33.86 43.9006C34.0651 43.9006 34.2604 43.8762 34.4313 43.8469V43.0022C34.2848 43.0168 34.192 43.0217 34.0309 43.0217C33.5084 43.0217 33.2936 42.7874 33.2936 42.2161V39.3987H34.4313V38.5637H33.2936V37.2258H32.2145V38.5637H31.3844V39.3987H32.2145V42.47C32.2145 43.4905 32.693 43.9006 33.86 43.9006ZM37.4481 43.9006C37.6532 43.9006 37.8485 43.8762 38.0194 43.8469V43.0022C37.8729 43.0168 37.7802 43.0217 37.619 43.0217C37.0966 43.0217 36.8817 42.7874 36.8817 42.2161V39.3987H38.0194V38.5637H36.8817V37.2258H35.8026V38.5637H34.9725V39.3987H35.8026V42.47C35.8026 43.4905 36.2811 43.9006 37.4481 43.9006ZM39.5665 37.6165C39.9279 37.6165 40.2306 37.3186 40.2306 36.9573C40.2306 36.5911 39.9279 36.2932 39.5665 36.2932C39.2003 36.2932 38.9025 36.5911 38.9025 36.9573C38.9025 37.3186 39.2003 37.6165 39.5665 37.6165ZM39.0343 43.8665H40.089V38.5637H39.0343V43.8665ZM41.392 43.8665H42.4515V40.7561C42.4515 39.9016 42.9349 39.3694 43.7113 39.3694C44.4877 39.3694 44.8539 39.804 44.8539 40.6829V43.8665H45.9086V40.4338C45.9086 39.1692 45.2543 38.4612 44.0677 38.4612C43.2962 38.4612 42.7884 38.803 42.5296 39.3694H42.4515V38.5637H41.392V43.8665ZM49.3893 45.7366C50.8932 45.7366 51.8453 44.9651 51.8453 43.759V38.5637H50.7906V39.4329H50.7271C50.4195 38.8372 49.8434 38.4709 49.1012 38.4709C47.7242 38.4709 46.8795 39.5403 46.8795 41.054V41.0637C46.8795 42.5579 47.7193 43.6077 49.0816 43.6077C49.8092 43.6077 50.3951 43.2854 50.7174 42.7092H50.7955V43.7542C50.7955 44.4768 50.2779 44.887 49.4039 44.887C48.6861 44.887 48.2564 44.6282 48.1686 44.262L48.1637 44.2522H47.0943L47.0846 44.262C47.2115 45.1458 48.0416 45.7366 49.3893 45.7366ZM49.3746 42.7336C48.4713 42.7336 47.9635 42.0452 47.9635 41.0588V41.0491C47.9635 40.0627 48.4713 39.3694 49.3746 39.3694C50.2682 39.3694 50.815 40.0627 50.815 41.0491V41.0588C50.815 42.05 50.273 42.7336 49.3746 42.7336ZM55.0575 43.969C56.3172 43.969 57.2547 43.3 57.2547 42.3186V42.3088C57.2547 41.5422 56.7664 41.1077 55.7459 40.8684L54.9061 40.678C54.3104 40.5364 54.0662 40.3313 54.0662 39.9993V39.9895C54.0662 39.5647 54.4862 39.2766 55.0672 39.2766C55.6629 39.2766 56.0389 39.5549 56.1414 39.926V39.9358H57.1522V39.9309C57.0594 39.0667 56.283 38.4612 55.0721 38.4612C53.8709 38.4612 53.0116 39.1252 53.0116 40.0481V40.053C53.0116 40.8293 53.4754 41.2834 54.4764 41.5129L55.3211 41.7083C55.9364 41.8499 56.1854 42.0745 56.1854 42.4065V42.4163C56.1854 42.8508 55.7313 43.1487 55.077 43.1487C54.4471 43.1487 54.0614 42.8801 53.9295 42.4797L53.9246 42.4749H52.8651V42.4797C52.9676 43.3684 53.7782 43.969 55.0575 43.969Z" fill="#2E2F34"/>
<path d="M39.486 30.92H38.0109C37.4375 30.9194 36.8878 30.6912 36.4823 30.2857C36.0769 29.8802 35.8488 29.3304 35.8481 28.757V28.2581C35.3406 28.0965 34.8478 27.8921 34.3749 27.647L34.0214 28.0006C33.8205 28.2016 33.5821 28.361 33.3196 28.4697C33.0571 28.5785 32.7758 28.6345 32.4917 28.6345C32.2076 28.6345 31.9263 28.5785 31.6638 28.4697C31.4014 28.361 31.1629 28.2016 30.9621 28.0006L29.9197 26.9574C29.7187 26.7565 29.5593 26.5179 29.4505 26.2554C29.3418 25.9928 29.2858 25.7114 29.2858 25.4272C29.2858 25.1431 29.3418 24.8616 29.4505 24.5991C29.5593 24.3365 29.7187 24.098 29.9197 23.8971L30.2725 23.5442C30.0279 23.072 29.8237 22.5799 29.6622 22.0732H29.1634C28.5895 22.0727 28.0392 21.8443 27.6335 21.4383C27.2279 21.0322 27 20.4817 27 19.9077V18.4324C27.0007 17.8588 27.2288 17.3089 27.6344 16.9034C28.04 16.4978 28.5899 16.2698 29.1634 16.2693H29.6622C29.824 15.7618 30.0284 15.269 30.2732 14.7959L29.9197 14.4423C29.7187 14.2415 29.5593 14.003 29.4506 13.7405C29.3418 13.478 29.2859 13.1966 29.2859 12.9125C29.2859 12.6283 29.3418 12.347 29.4506 12.0845C29.5593 11.822 29.7187 11.5835 29.9197 11.3826L30.9627 10.3401C31.1635 10.1391 31.402 9.97968 31.6645 9.87091C31.9269 9.76215 32.2083 9.70617 32.4924 9.70617C32.7765 9.70617 33.0578 9.76215 33.3202 9.87091C33.5827 9.97968 33.8212 10.1391 34.022 10.3401L34.3749 10.693C34.8478 10.4481 35.3407 10.2436 35.8481 10.0819V9.58308C35.8488 9.0096 36.0769 8.4598 36.4823 8.05429C36.8878 7.64878 37.4375 7.42067 38.0109 7.42001H39.486C40.0598 7.42001 40.6102 7.64783 41.0162 8.05341C41.4222 8.45899 41.6506 9.00917 41.6513 9.58308V10.0819C42.1587 10.2436 42.6515 10.4481 43.1245 10.693L43.478 10.3394C43.6788 10.1385 43.9173 9.97905 44.1798 9.87029C44.4422 9.76152 44.7235 9.70554 45.0076 9.70554C45.2917 9.70554 45.5731 9.76152 45.8355 9.87029C46.098 9.97905 46.3365 10.1385 46.5373 10.3394L47.5797 11.3814C47.7807 11.5823 47.9401 11.8208 48.0488 12.0834C48.1576 12.3459 48.2136 12.6273 48.2136 12.9115C48.2136 13.1957 48.1576 13.4771 48.0488 13.7397C47.9401 14.0022 47.7807 14.2408 47.5797 14.4417L47.2268 14.7946C47.4716 15.2677 47.676 15.7606 47.8378 16.2681H48.3366C48.9101 16.2685 49.46 16.4966 49.8656 16.9021C50.2712 17.3076 50.4993 17.8575 50.5 18.4311V19.9064C50.5002 20.191 50.4442 20.4728 50.3354 20.7358C50.2266 20.9988 50.067 21.2377 49.8658 21.4389C49.6646 21.6402 49.4257 21.7998 49.1628 21.9086C48.8998 22.0174 48.618 22.0734 48.3335 22.0732H47.8347C47.6727 22.5806 47.4684 23.0735 47.2237 23.5466L47.5772 23.9002C47.7782 24.1011 47.9376 24.3396 48.0463 24.6021C48.1551 24.8646 48.211 25.1459 48.211 25.43C48.211 25.7142 48.1551 25.9955 48.0463 26.258C47.9376 26.5205 47.7782 26.759 47.5772 26.9599L46.5348 28.0025C46.334 28.2034 46.0955 28.3628 45.833 28.4716C45.5706 28.5804 45.2893 28.6364 45.0052 28.6364C44.7211 28.6364 44.4397 28.5804 44.1773 28.4716C43.9148 28.3628 43.6763 28.2034 43.4755 28.0025L43.1226 27.6495C42.6497 27.8945 42.1568 28.0989 41.6494 28.2606V28.7594C41.6481 29.3326 41.4196 29.8819 41.0141 30.2868C40.6086 30.6918 40.0591 30.9195 39.486 30.92ZM34.6062 26.2004C35.2629 26.5888 35.971 26.8827 36.7097 27.0734C36.8572 27.1119 36.9877 27.1982 37.0809 27.3188C37.1741 27.4394 37.2247 27.5875 37.2247 27.74V28.757C37.225 28.9654 37.308 29.1652 37.4553 29.3126C37.6027 29.46 37.8025 29.5429 38.0109 29.5432H39.486C39.6944 29.5429 39.8942 29.46 40.0415 29.3126C40.1889 29.1652 40.2718 28.9654 40.2722 28.757V27.74C40.2723 27.5874 40.323 27.4391 40.4164 27.3185C40.5099 27.1978 40.6407 27.1116 40.7884 27.0734C41.5271 26.8827 42.2352 26.5888 42.8919 26.2004C43.0233 26.1221 43.177 26.09 43.3287 26.1091C43.4804 26.1282 43.6214 26.1974 43.7292 26.3058L44.4487 27.026C44.5961 27.1734 44.7961 27.2562 45.0045 27.2562C45.213 27.2562 45.4129 27.1734 45.5603 27.026L46.6034 25.9828C46.6764 25.9099 46.7344 25.8232 46.7739 25.7278C46.8135 25.6324 46.8338 25.5302 46.8338 25.4269C46.8338 25.3237 46.8135 25.2214 46.7739 25.1261C46.7344 25.0307 46.6764 24.944 46.6034 24.871L45.8833 24.1502C45.775 24.0425 45.7057 23.9017 45.6865 23.7501C45.6673 23.5985 45.6992 23.4448 45.7773 23.3134C46.1659 22.6568 46.4597 21.9485 46.6501 21.2096C46.6879 21.0616 46.774 20.9305 46.8947 20.837C47.0154 20.7434 47.1639 20.6929 47.3166 20.6933H48.3335C48.5419 20.693 48.7417 20.61 48.889 20.4627C49.0364 20.3153 49.1193 20.1155 49.1197 19.907V18.4324C49.1193 18.224 49.0365 18.0243 48.8893 17.877C48.742 17.7296 48.5424 17.6466 48.3341 17.6461H47.3172C47.1645 17.6465 47.0161 17.596 46.8953 17.5024C46.7746 17.4089 46.6885 17.2778 46.6508 17.1298C46.4601 16.391 46.1662 15.6828 45.7779 15.026C45.6999 14.8946 45.6679 14.7409 45.6871 14.5893C45.7063 14.4378 45.7756 14.2969 45.8839 14.1892L46.6034 13.4684C46.6764 13.3954 46.7344 13.3087 46.7739 13.2134C46.8135 13.118 46.8338 13.0157 46.8338 12.9125C46.8338 12.8092 46.8135 12.707 46.7739 12.6116C46.7344 12.5162 46.6764 12.4296 46.6034 12.3566L45.561 11.314C45.488 11.241 45.4014 11.183 45.306 11.1435C45.2106 11.1039 45.1084 11.0836 45.0052 11.0836C44.9019 11.0836 44.7997 11.1039 44.7043 11.1435C44.6089 11.183 44.5223 11.241 44.4493 11.314L43.7292 12.0342C43.6214 12.1426 43.4804 12.2119 43.3287 12.231C43.177 12.2501 43.0233 12.2179 42.8919 12.1396C42.2351 11.7515 41.527 11.4576 40.7884 11.2666C40.6407 11.2284 40.5099 11.1422 40.4164 11.0215C40.323 10.9009 40.2723 10.7527 40.2722 10.6001V9.58308C40.2718 9.37464 40.1889 9.17484 40.0415 9.02745C39.8942 8.88007 39.6944 8.79712 39.486 8.79679H38.0109C37.8025 8.79712 37.6027 8.88007 37.4553 9.02745C37.308 9.17484 37.225 9.37464 37.2247 9.58308V10.6001C37.2251 10.7528 37.1746 10.9013 37.0811 11.022C36.9876 11.1428 36.8565 11.2289 36.7085 11.2666C35.9698 11.4574 35.2616 11.7512 34.6049 12.1396C34.4737 12.2177 34.3201 12.2498 34.1685 12.2307C34.0169 12.2116 33.8761 12.1425 33.7683 12.0342L33.0475 11.314C32.9001 11.1666 32.7002 11.0838 32.4917 11.0838C32.2833 11.0838 32.0833 11.1666 31.9359 11.314L30.8935 12.3566C30.8204 12.4296 30.7625 12.5162 30.723 12.6116C30.6834 12.707 30.6631 12.8092 30.6631 12.9125C30.6631 13.0157 30.6834 13.118 30.723 13.2134C30.7625 13.3087 30.8204 13.3954 30.8935 13.4684L31.6136 14.1892C31.7221 14.2971 31.7915 14.4382 31.8105 14.59C31.8296 14.7419 31.7974 14.8958 31.719 15.0272C31.3306 15.684 31.0368 16.3922 30.8461 17.131C30.8076 17.2785 30.7213 17.4091 30.6007 17.5023C30.4801 17.5955 30.332 17.6461 30.1796 17.6461H29.1634C28.9549 17.6462 28.7549 17.7291 28.6074 17.8765C28.4599 18.0239 28.3769 18.2238 28.3766 18.4324V19.9077C28.3769 20.1162 28.4599 20.3161 28.6074 20.4635C28.7549 20.6109 28.9549 20.6938 29.1634 20.6939H30.1796C30.3323 20.6935 30.4808 20.7441 30.6016 20.8376C30.7223 20.9311 30.8084 21.0623 30.8461 21.2102C31.0368 21.949 31.3306 22.6573 31.719 23.3141C31.7971 23.4454 31.8292 23.599 31.8101 23.7506C31.791 23.9022 31.7218 24.043 31.6136 24.1509L30.8935 24.871C30.8204 24.944 30.7625 25.0307 30.723 25.1261C30.6834 25.2214 30.6631 25.3237 30.6631 25.4269C30.6631 25.5302 30.6834 25.6324 30.723 25.7278C30.7625 25.8232 30.8204 25.9099 30.8935 25.9828L31.9365 27.026C32.0095 27.0991 32.0961 27.157 32.1915 27.1966C32.2869 27.2361 32.3891 27.2565 32.4924 27.2565C32.5956 27.2565 32.6978 27.2361 32.7932 27.1966C32.8886 27.157 32.9752 27.0991 33.0482 27.026L33.7683 26.3052C33.8768 26.1977 34.0178 26.1291 34.1694 26.1102C34.321 26.0912 34.4745 26.123 34.6062 26.2004Z" fill="#2E2F34"/>
<path d="M38.7491 24.283C37.7379 24.283 36.7495 23.9831 35.9088 23.4213C35.0681 22.8595 34.4128 22.0609 34.0259 21.1267C33.6389 20.1924 33.5377 19.1643 33.735 18.1725C33.9322 17.1806 34.4191 16.2696 35.1341 15.5545C35.8491 14.8395 36.76 14.3525 37.7517 14.1552C38.7434 13.9579 39.7713 14.0592 40.7055 14.4462C41.6397 14.8331 42.4381 15.4885 42.9998 16.3293C43.5616 17.1702 43.8614 18.1587 43.8614 19.17C43.8599 20.5256 43.3208 21.8252 42.3624 22.7838C41.404 23.7424 40.1045 24.2815 38.7491 24.283ZM38.7491 15.4337C38.0102 15.4337 37.2879 15.6529 36.6736 16.0634C36.0593 16.4739 35.5804 17.0575 35.2977 17.7402C35.0149 18.4229 34.941 19.1741 35.0851 19.8989C35.2292 20.6237 35.585 21.2894 36.1075 21.8119C36.63 22.3344 37.2956 22.6903 38.0203 22.8344C38.7449 22.9786 39.4961 22.9046 40.1787 22.6218C40.8613 22.339 41.4448 21.8602 41.8552 21.2457C42.2657 20.6313 42.4848 19.9089 42.4848 19.17C42.4835 18.1795 42.0895 17.2299 41.3892 16.5295C40.6889 15.8291 39.7395 15.435 38.7491 15.4337Z" fill="#2E2F34"/>
</svg>
